<svg xmlns="http://www.w3.org/2000/svg" xmlns:xlink="http://www.w3.org/1999/xlink" version="1.1" width="1366pt" height="768pt" viewBox="0 0 1366 768">
<g id="layer_1" data-name="Layer 1">
<text fill="#666666" xml:space="preserve" transform="matrix(1 0 -0 1 0 768)" font-size="190.0813" font-family="Lexend"><tspan y="-345.082" x="495.8545 597.3579 707.79519 832.6786 880.389 994.43777">scales</tspan></text>
<text fill="#f73e0d" xml:space="preserve" transform="matrix(1 0 -0 1 0 768)" font-size="39.2182" font-family="Outfit"><tspan y="-297.7139" x="846.1426 861.79067 883.2822 902.73446 925.16726 947.60006 970.1897 980.42568 1003.0153 1025.8795 1036.1155 1057.607">technologies</tspan></text>
<path transform="matrix(1,0,0,-1,0,768)" d="M365.058 447.069H280.523V531.604H365.058Z" fill="#f73e0d"/>
<path transform="matrix(1,0,0,-1,0,768)" d="M428.191 383.935H365.057V447.069H428.191Z" fill="#f73e0d"/>
<path transform="matrix(1,0,0,-1,0,768)" d="M468.4 343.727H428.192V383.935H468.4Z" fill="#f73e0d"/>
<path transform="matrix(1,0,0,-1,0,768)" d="M428.191 312.16H396.62403V343.727H428.191Z" fill="#f73e0d"/>
<path transform="matrix(1,0,0,-1,0,768)" d="M396.625 290.531H374.997V312.159H396.625Z" fill="#f73e0d"/>
<text fill="#666666" xml:space="preserve" transform="matrix(1 0 -0 1 0 768)" font-size="24.9156" font-family="Lexend"><tspan y="-242.501" x="585.9204 599.8482 615.8191 630.61898 647.1629 663.70687 680.6245 688.47299 705.3906 723.1056 739.3007 747.9963 771.0183 788.38449 805.7257 821.6966 830.39218 847.2102 864.57638 878.03079 893.22927">Technology Made Easy.</tspan></text>
</g>
</svg>
